<svg version="1" xmlns="http://www.w3.org/2000/svg" width="682.667" height="682.667" viewBox="0 0 512.000000 512.000000"><path d="M300.3 39.7c.4.6-39.8.9-117.6.9-86.9-.1-119.4.2-122.9 1-8.1 2-15.4 8.3-19.1 16.4-2 4.5-2 5.2-2.1 200v195.5l2.2 5c1.3 2.7 3.3 6 4.5 7.3 2.6 2.9 10.7 8.6 10.7 7.6 0-.3.7 0 1.7.7 1.3 1.2 32.9 1.4 196.7 1.5 210.8.1 199.4.4 207.1-5 4.3-3 6.3-5.4 9.3-11.6l2.7-5.5v-391l-2.9-5.8c-3.3-6.8-10.4-13-16.9-14.8-3-.8-25.4-1.2-77.7-1.3-41.9-.1-74.1-.5-74.9-1-.9-.6-1.2-.5-.8.1zm-136.7 94.2c18.9 18.9 34.4 34.6 34.4 34.8 0 .2-17.1 17.5-38.1 38.5l-38 38.1-4.6-4.4c-2.4-2.4-8.2-8.2-12.8-12.7l-8.4-8.4 25.5-25.5 25.6-25.6-8.4-8.4c-4.5-4.6-16.1-16.1-25.5-25.6L96 117.5l12.8-12.7 12.7-12.7 3.8 3.7c2.1 2 19.4 19.2 38.3 38.1zm143.5 77.8c.1 15.5-.2 32.7-.7 33.2-.9 1-8.9.6-9.6-.4-.5-.7-.8-.7-.8 0s-13.2.9-37.7.8c-20.8 0-38.5-.2-39.3-.2-1.3-.1-1.5-2.8-1.3-18.3.1-10.1.2-18.6.2-19.1.1-.4 20.1-.7 44.6-.7H307l.1 4.7z"/></svg>